<?xml version="1.0" standalone="no"?>
<!DOCTYPE svg PUBLIC "-//W3C//DTD SVG 20010904//EN"
 "http://www.w3.org/TR/2001/REC-SVG-20010904/DTD/svg10.dtd">
<svg version="1.0" xmlns="http://www.w3.org/2000/svg"
 width="500.000000pt" height="500.000000pt" viewBox="0 0 500.000000 500.000000"
 preserveAspectRatio="xMidYMid meet">

<g transform="translate(0.000000,500.000000) scale(0.100000,-0.100000)"
fill="#000000" stroke="none">
<path d="M2548 3083 c12 -2 30 -2 40 0 9 3 -1 5 -23 4 -22 0 -30 -2 -17 -4z"/>
<path d="M2708 3083 c6 -2 18 -2 25 0 6 3 1 5 -13 5 -14 0 -19 -2 -12 -5z"/>
<path d="M2360 3071 l75 -6 -45 -14 c-25 -7 -50 -17 -56 -22 -6 -5 -13 -6 -17
-3 -8 9 -47 -15 -44 -28 1 -6 -4 -13 -12 -16 -9 -3 -11 0 -6 8 21 34 -88 -46
-165 -122 -143 -141 -198 -274 -187 -453 5 -78 11 -100 46 -170 96 -195 306
-308 562 -304 68 1 64 3 -53 14 -110 11 -136 17 -190 45 -115 59 -188 127
-245 228 -118 210 -72 443 127 642 97 98 187 155 278 178 60 14 68 14 160 -7
170 -38 317 -126 409 -246 148 -195 57 -560 -182 -721 -27 -19 -46 -34 -42
-34 15 0 92 54 139 98 26 24 48 40 48 34 0 -13 -106 -110 -147 -135 -40 -23
-43 -33 -5 -13 91 47 192 158 245 269 37 78 50 154 45 269 -4 84 -9 105 -40
170 -51 106 -145 196 -263 254 -50 24 -100 44 -110 45 -11 0 -36 7 -55 14 -33
14 -30 14 50 9 47 -3 91 -7 98 -10 7 -2 11 0 8 5 -7 11 -143 21 -341 25 -89 2
-127 1 -85 -3z m-50 -61 c-8 -5 -19 -10 -25 -10 -5 0 -3 5 5 10 8 5 20 10 25
10 6 0 3 -5 -5 -10z m-90 -57 c-70 -52 -171 -167 -210 -237 -91 -166 -94 -342
-10 -494 18 -31 42 -68 54 -81 11 -13 15 -21 8 -17 -25 15 -89 112 -112 171
-19 48 -24 80 -24 160 -1 141 34 239 127 359 36 45 175 166 191 166 6 0 -5
-12 -24 -27z m801 -690 c-21 -40 -60 -93 -61 -82 0 4 16 30 35 59 19 29 35 57
35 63 0 6 3 8 6 5 3 -3 -4 -23 -15 -45z"/>
<path d="M2396 2644 c-48 -125 -106 -309 -102 -320 3 -9 15 -14 28 -12 17 2
28 21 56 98 63 176 85 211 115 181 12 -12 -2 -62 -51 -190 -20 -50 -23 -67
-14 -82 11 -17 7 -18 -56 -22 -52 -2 -46 -3 28 -4 52 0 87 1 77 4 -13 3 -15 8
-7 18 5 7 28 64 51 126 45 126 62 159 85 159 27 0 26 -29 -5 -119 -38 -110
-39 -133 -5 -160 32 -25 37 -25 79 -5 37 17 82 91 72 117 -10 27 -23 20 -51
-28 -17 -29 -34 -45 -46 -45 -26 0 -26 3 15 117 39 108 43 144 19 167 -18 18
-76 21 -105 5 -14 -7 -24 -7 -32 0 -20 16 -144 12 -151 -5z"/>
<path d="M2460 2280 c-45 -4 -1 -7 140 -10 113 -3 216 -2 230 2 14 3 -43 7
-127 7 -83 1 -157 2 -165 4 -7 2 -42 1 -78 -3z"/>
<path d="M2223 2273 c15 -2 39 -2 55 0 15 2 2 4 -28 4 -30 0 -43 -2 -27 -4z"/>
<path d="M2358 2273 c7 -3 16 -2 19 1 4 3 -2 6 -13 5 -11 0 -14 -3 -6 -6z"/>
<path d="M2163 2253 c9 -2 25 -2 35 0 9 3 1 5 -18 5 -19 0 -27 -2 -17 -5z"/>
<path d="M2375 2250 c-22 -5 9 -6 70 -3 61 3 112 7 114 9 8 7 -143 1 -184 -6z"/>
<path d="M2578 2233 c29 -2 74 -2 100 0 26 2 2 3 -53 3 -55 0 -76 -1 -47 -3z"/>
<path d="M2750 2230 c-13 -9 -13 -10 0 -10 8 0 22 5 30 10 13 9 13 10 0 10 -8
0 -22 -5 -30 -10z"/>
<path d="M2398 2223 c17 -2 47 -2 65 0 17 2 3 4 -33 4 -36 0 -50 -2 -32 -4z"/>
<path d="M2353 2203 c9 -2 25 -2 35 0 9 3 1 5 -18 5 -19 0 -27 -2 -17 -5z"/>
<path d="M2700 2015 c-14 -8 -20 -14 -15 -14 6 0 21 6 35 14 14 8 21 14 15 14
-5 0 -21 -6 -35 -14z"/>
<path d="M2588 1973 c7 -3 16 -2 19 1 4 3 -2 6 -13 5 -11 0 -14 -3 -6 -6z"/>
<path d="M2518 1963 c6 -2 18 -2 25 0 6 3 1 5 -13 5 -14 0 -19 -2 -12 -5z"/>
<path d="M2608 1953 c7 -3 16 -2 19 1 4 3 -2 6 -13 5 -11 0 -14 -3 -6 -6z"/>
</g>
</svg>
